<svg xmlns="http://www.w3.org/2000/svg" viewBox="0 0 200 200">
  <circle cx="100" cy="100" r="90" fill="#FDE047" stroke="#D97706" stroke-width="4"/>
  <circle cx="65" cy="80" r="22" fill="white" stroke="#1E293B" stroke-width="3"/>
  <circle cx="135" cy="80" r="22" fill="white" stroke="#1E293B" stroke-width="3"/>
  <circle cx="70" cy="85" r="9" fill="#1E293B"/>
  <circle cx="140" cy="85" r="9" fill="#1E293B"/>
  <circle cx="73" cy="82" r="3" fill="white"/>
  <circle cx="143" cy="82" r="3" fill="white"/>
  <polygon points="100,100 88,116 112,116" fill="#F97316"/>
  <path d="M45 65 Q65 55 75 65" stroke="#1E293B" stroke-width="3" fill="none" stroke-linecap="round"/>
  <path d="M155 65 Q135 55 125 65" stroke="#1E293B" stroke-width="3" fill="none" stroke-linecap="round"/>
  <polygon points="30,40 50,50 38,25" fill="#FDE047" stroke="#D97706" stroke-width="2"/>
  <polygon points="170,40 150,50 162,25" fill="#FDE047" stroke="#D97706" stroke-width="2"/>
  <ellipse cx="40" cy="120" rx="15" ry="30" fill="#FDE047" stroke="#D97706" stroke-width="2" transform="rotate(-20 40 120)"/>
  <ellipse cx="160" cy="120" rx="15" ry="30" fill="#FDE047" stroke="#D97706" stroke-width="2" transform="rotate(20 160 120)"/>
</svg>